<mxfile host="app.diagrams.net" modified="2023-05-06T02:37:57.899Z" agent="Mozilla/5.0 (Windows NT 10.0; Win64; x64) AppleWebKit/537.36 (KHTML, like Gecko) Chrome/112.0.0.0 Safari/537.36" version="21.2.9" etag="cc5haOwIDAZiaI2vMcn9" type="github">
  <diagram name="第 1 页" id="eo8mOR92aJCZjBwDLp7U">
    <mxGraphModel>
      <root>
        <mxCell id="0" />
        <mxCell id="1" parent="0" />
      </root>
    </mxGraphModel>
  </diagram>
</mxfile>
